<?xml version="1.0" encoding="UTF-8" standalone="no"?><svg width="1000" height="750" xmlns="http://www.w3.org/2000/svg">

<!-- Most SVG code was produced by spreadsheet; then used manual-edit grouping (<g>) to optimize code -->
<path d="M0,0 h1000 v750 h-1000 z" fill="white"/>   <g font-family="Liberation Sans,sans-serif" font-size="40px" text-anchor="middle" fill="black"> <switch>
<text x="550" y="46" systemLanguage="cs">Změna průměrné globální teploty</text>
<text x="550" y="46" systemLanguage="ja">世界の平均気温変化</text>
<text x="550" y="46" >Global average temperature change</text>
 </switch>
 <switch>
<text transform="translate(50,375) rotate(-90)" systemLanguage="cs">Změna teploty (°C)</text>
<text transform="translate(50,375) rotate(-90)" systemLanguage="ja">気温の変化 (°C)</text>
<text transform="translate(50,375) rotate(-90)" >Temperature change (°C)</text>
 </switch>
<text transform="translate(10,0)" font-size="25"><tspan x="95" y="83.75">1.25</tspan><tspan x="95" y="158.75">1.0</tspan><tspan x="95" y="233.75">0.75</tspan><tspan x="95" y="308.75">0.5</tspan><tspan x="95" y="383.75">0.25</tspan><tspan x="95" y="458.75">0.0</tspan><tspan x="95" y="533.75">-0.25</tspan><tspan x="95" y="608.75">-0.5</tspan><tspan x="95" y="683.75">-0.75</tspan></text><text font-size="35"><tspan x="150" y="721.25">1850</tspan><tspan x="264.29" y="721.25">1875</tspan><tspan x="378.57" y="721.25">1900</tspan><tspan x="492.86" y="721.25">1925</tspan><tspan x="607.14" y="721.25">1950</tspan><tspan x="721.43" y="721.25">1975</tspan><tspan x="835.71" y="721.25">2000</tspan><tspan x="950" y="721.25">2025</tspan></text>   </g><!-- gridlines --><g stroke="black" stroke-width="0.25"><path d="M140,75 h810"/><path d="M140,150 h810"/><path d="M140,225 h810"/><path d="M140,300 h810"/><path d="M140,375 h810"/><path d="M140,450 h810"/><path d="M140,525 h810"/><path d="M140,600 h810"/><path d="M140,675 h810"/><path d="M150,75 v610"/><path d="M264.29,75 v610"/><path d="M378.57,75 v610"/><path d="M492.86,75 v610"/><path d="M607.14,75 v610"/><path d="M721.43,75 v610"/><path d="M835.71,75 v610"/><path d="M950,75 v610"/></g><!-- FIRST TRACE pixel coordinates arranged in groups of 10 to save vertical space in SVG file --><path d="M287.143,498.1 L291.714,474.1 L296.286,483.1 L300.857,501.1 L305.429,534.1 L310,549.1 L314.571,543.1 L319.143,558.1 L323.714,501.1 L328.286,480.1 L332.857,555.1 L337.429,516.1 L342,531.1 L346.571,543.1 L351.143,540.1 L355.714,519.1 L360.286,483.1 L364.857,483.1 L369.429,531.1 L374,504.1 L378.571,474.1 L383.143,498.1 L387.714,531.1 L392.286,561.1 L396.857,588.1 L401.429,528.1 L406,516.1 L410.571,564.1 L415.143,576.1 L419.714,594.1 L424.286,579.1 L428.857,582.1 L433.429,558.1 L438,552.1 L442.571,495.1 L447.143,492.1 L451.714,558.1 L456.286,588.1 L460.857,540.1 L465.429,534.1 L470,531.1 L474.571,507.1 L479.143,534.1 L483.714,531.1 L488.286,531.1 L492.857,516.1 L497.429,480.1 L502,513.1 L506.571,510.1 L511.143,558.1 L515.714,495.1 L520.286,477.1 L524.857,498.1 L529.429,534.1 L534,486.1 L538.571,510.1 L543.143,492.1 L547.714,456.1 L552.286,450.1 L556.857,453.1 L561.429,411.1 L566,393.1 L570.571,429.1 L575.143,423.1 L579.714,390.1 L584.286,423.1 L588.857,471.1 L593.429,459.1 L598,483.1 L602.571,483.1 L607.143,501.1 L611.714,471.1 L616.286,447.1 L620.857,426.1 L625.429,489.1 L630,492.1 L634.571,507.1 L639.143,435.1 L643.714,432.1 L648.286,441.1 L652.857,459.1 L657.429,432.1 L662,441.1 L666.571,435.1 L671.143,510.1 L675.714,483.1 L680.286,468.1 L684.857,456.1 L689.429,474.1 L694,435.1 L698.571,441.1 L703.143,474.1 L707.714,447.1 L712.286,402.1 L716.857,471.1 L721.429,453.1 L726,480.1 L730.571,396.1 L735.143,429.1 L739.714,399.1 L744.286,372.1 L748.857,354.1 L753.429,408.1 L758,357.1 L762.571,402.1 L767.143,414.1 L771.714,396.1 L776.286,354.1 L780.857,333.1 L785.429,369.1 L790,315.1 L794.571,327.1 L799.143,384.1 L803.714,381.1 L808.286,354.1 L812.857,315.1 L817.429,351.1 L822,312.1 L826.571,267.1 L831.143,336.1 L835.714,333.1 L840.286,288.1 L844.857,261.1 L849.429,264.1 L854,288.1 L858.571,246.1 L863.143,258.1 L867.714,249.1 L872.286,288.1 L876.857,252.1 L881.429,234.1 L886,267.1 L890.571,255.1 L895.143,246.1 L899.714,225.1 L904.286,180.1 L908.857,144.1 L913.429,174.1 L918,195.1 L922.571,156.1 L927.143,144.1 L931.714,195.1 " stroke="orange" stroke-width="2" fill="none" stroke-linecap="round" stroke-linejoin="round"/><!-- SECOND TRACE --><path d="M150,552.316 L154.571,497.023 L159.143,495.838 L163.714,508.125 L168.286,514.507 L172.857,516.104 L177.429,523.124 L182,567.187 L186.571,543.648 L191.143,511.377 L195.714,544.068 L200.286,555.801 L204.857,587.938 L209.429,530.321 L214,566.649 L218.571,526.795 L223.143,529.396 L227.714,534.107 L232.286,532.606 L236.857,521.989 L241.429,525.385 L246,537.592 L250.571,525.431 L255.143,529.418 L259.714,538.994 L264.286,539.706 L268.857,554.251 L273.429,457.351 L278,430.413 L282.571,518.109 L287.143,521.768 L291.714,496.692 L296.286,515.677 L300.857,530.961 L305.429,574.714 L310,568.355 L314.571,553.289 L319.143,576.654 L323.714,540.832 L328.286,501.987 L332.857,579.076 L337.429,547.413 L342,579.286 L346.571,575.404 L351.143,572.147 L355.714,561.644 L360.286,512.22 L364.857,504.958 L369.429,572.756 L374,533.648 L378.571,497.362 L383.143,515.047 L387.714,558.714 L392.286,587.016 L396.857,606.287 L401.429,549.344 L406,522.76 L410.571,578.266 L415.143,581.179 L419.714,587.748 L424.286,586.325 L428.857,588.78 L433.429,569.72 L438,567.164 L442.571,505.796 L447.143,484.571 L451.714,553.081 L456.286,589.924 L460.857,554.394 L465.429,524.674 L470,516.592 L474.571,499.221 L479.143,528.787 L483.714,522.397 L488.286,520.637 L492.857,511.746 L497.429,463.869 L502,495.84 L506.571,489.047 L511.143,544.845 L515.714,480.06 L520.286,458.038 L524.857,470.657 L529.429,523.722 L534,479.319 L538.571,488.836 L543.143,477.875 L547.714,432.778 L552.286,430.678 L556.857,439.257 L561.429,404.237 L566,415.579 L570.571,426.596 L575.143,425.094 L579.714,383.787 L584.286,414.092 L588.857,462.662 L593.429,454.38 L598,464.417 L602.571,470.159 L607.143,495.005 L611.714,445.364 L616.286,422.412 L620.857,403.729 L625.429,462.043 L630,486.211 L634.571,505.968 L639.143,437.619 L643.714,432.308 L648.286,441.42 L652.857,461.664 L657.429,433.017 L662,446.235 L666.571,438.06 L671.143,518.778 L675.714,488.335 L680.286,471.684 L684.857,462.273 L689.429,477.608 L694,436.428 L698.571,452.55 L703.143,488.798 L707.714,455.166 L712.286,412.038 L716.857,478.779 L721.429,460.244 L726,491.777 L730.571,396.092 L735.143,425.441 L739.714,399.761 L744.286,368.197 L748.857,352.015 L753.429,416.739 L758,359.867 L762.571,412.617 L767.143,412.099 L771.714,398.312 L776.286,354.11 L780.857,342.373 L785.429,373.243 L790,318.849 L794.571,325.349 L799.143,389.549 L803.714,377.321 L808.286,356.953 L812.857,313.958 L817.429,344.011 L822,300.326 L826.571,253.823 L831.143,329.673 L835.714,327.693 L840.286,280.234 L844.857,263.978 L849.429,263.767 L854,286.807 L858.571,244.959 L863.143,255.252 L867.714,249.508 L872.286,287.323 L876.857,247.984 L881.429,222.907 L886,265.709 L890.571,253.736 L895.143,239.946 L899.714,225.157 L904.286,179.484 L908.857,147.14 L913.429,173.466 L918,198.222 L922.571,159.696 L927.143,150.18 L931.714,198.174 " stroke="green" stroke-width="2" fill="none" stroke-linecap="round" stroke-linejoin="round"/><!-- THIRD TRACE --><path d="M287.143,495 L291.714,483 L296.286,489 L300.857,516 L305.429,540 L310,537 L314.571,534 L319.143,546 L323.714,501 L328.286,486 L332.857,564 L337.429,537 L342,552 L346.571,561 L351.143,555 L355.714,534 L360.286,489 L364.857,492 L369.429,543 L374,510 L378.571,483 L383.143,507 L387.714,540 L392.286,573 L396.857,597 L401.429,543 L406,525 L410.571,576 L415.143,591 L419.714,594 L424.286,582 L428.857,594 L433.429,564 L438,558 L442.571,504 L447.143,489 L451.714,561 L456.286,582 L460.857,555 L465.429,537 L470,531 L474.571,510 L479.143,537 L483.714,537 L488.286,534 L492.857,516 L497.429,483 L502,513 L506.571,516 L511.143,561 L515.714,495 L520.286,480 L524.857,501 L529.429,540 L534,495 L538.571,510 L543.143,498 L547.714,465 L552.286,468 L556.857,459 L561.429,414 L566,381 L570.571,429 L575.143,429 L579.714,378 L584.286,408 L588.857,465 L593.429,471 L598,477 L602.571,483 L607.143,507 L611.714,462 L616.286,450 L620.857,423 L625.429,492 L630,501 L634.571,516 L639.143,441 L643.714,426 L648.286,438 L652.857,447 L657.429,435 L662,429 L666.571,426 L671.143,504 L675.714,483 L680.286,465 L684.857,462 L689.429,471 L694,429 L698.571,444 L703.143,483 L707.714,450 L712.286,405 L716.857,480 L721.429,459 L726,483 L730.571,399 L735.143,426 L739.714,393 L744.286,378 L748.857,363 L753.429,405 L758,354 L762.571,411 L767.143,414 L771.714,390 L776.286,345 L780.857,345 L785.429,372 L790,327 L794.571,345 L799.143,390 L803.714,378 L808.286,357 L812.857,321 L817.429,366 L822,309 L826.571,267 L831.143,330 L835.714,333 L840.286,291 L844.857,276 L849.429,270 L854,288 L858.571,261 L863.143,273 L867.714,276 L872.286,300 L876.857,270 L881.429,246 L886,291 L890.571,273 L895.143,261 L899.714,240 L904.286,183 L908.857,165 L913.429,189 L918,216 L922.571,177 L927.143,168 L931.714,210 " stroke="purple" stroke-width="2" fill="none" stroke-linecap="round" stroke-linejoin="round"/><!-- FOURTH TRACE --><path d="M337.429,520.4 L342,553.4 L346.571,568.4 L351.143,544.4 L355.714,529.4 L360.286,466.4 L364.857,472.4 L369.429,523.4 L374,496.4 L378.571,472.4 L383.143,496.4 L387.714,535.4 L392.286,556.4 L396.857,568.4 L401.429,532.4 L406,508.4 L410.571,559.4 L415.143,568.4 L419.714,568.4 L424.286,562.4 L428.857,565.4 L433.429,544.4 L438,535.4 L442.571,484.4 L447.143,469.4 L451.714,541.4 L456.286,559.4 L460.857,520.4 L465.429,508.4 L470,493.4 L474.571,469.4 L479.143,499.4 L483.714,496.4 L488.286,499.4 L492.857,472.4 L497.429,442.4 L502,472.4 L506.571,481.4 L511.143,511.4 L515.714,454.4 L520.286,433.4 L524.857,454.4 L529.429,487.4 L534,451.4 L538.571,463.4 L543.143,445.4 L547.714,418.4 L552.286,418.4 L556.857,442.4 L561.429,451.4 L566,421.4 L570.571,430.4 L575.143,430.4 L579.714,394.4 L584.286,433.4 L588.857,460.4 L593.429,460.4 L598,439.4 L602.571,439.4 L607.143,475.4 L611.714,436.4 L616.286,430.4 L620.857,409.4 L625.429,481.4 L630,487.4 L634.571,514.4 L639.143,433.4 L643.714,418.4 L648.286,436.4 L652.857,457.4 L657.429,433.4 L662,433.4 L666.571,421.4 L671.143,496.4 L675.714,475.4 L680.286,451.4 L684.857,451.4 L689.429,466.4 L694,433.4 L698.571,448.4 L703.143,484.4 L707.714,448.4 L712.286,409.4 L716.857,490.4 L721.429,475.4 L726,508.4 L730.571,421.4 L735.143,442.4 L739.714,403.4 L744.286,400.4 L748.857,388.4 L753.429,427.4 L758,379.4 L762.571,439.4 L767.143,439.4 L771.714,412.4 L776.286,367.4 L780.857,370.4 L785.429,391.4 L790,346.4 L794.571,358.4 L799.143,403.4 L803.714,391.4 L808.286,367.4 L812.857,331.4 L817.429,370.4 L822,313.4 L826.571,268.4 L831.143,337.4 L835.714,343.4 L840.286,304.4 L844.857,286.4 L849.429,283.4 L854,301.4 L858.571,268.4 L863.143,277.4 L867.714,286.4 L872.286,310.4 L876.857,277.4 L881.429,253.4 L886,301.4 L890.571,283.4 L895.143,265.4 L899.714,247.4 L904.286,196.4 L908.857,181.4 L913.429,208.4 L918,238.4 L922.571,193.4 L927.143,184.4 L931.714,220.4 " stroke="blue" stroke-width="2" fill="none" stroke-linecap="round" stroke-linejoin="round"/><!-- FIFTH TRACE --><path d="M150,588.02 L154.571,553.52 L159.143,545.42 L163.714,544.82 L168.286,544.22 L172.857,541.22 L177.429,575.72 L182,618.02 L186.571,555.92 L191.143,522.02 L195.714,567.92 L200.286,591.92 L204.857,626.12 L209.429,559.82 L214,562.82 L218.571,531.92 L223.143,516.32 L227.714,503.42 L232.286,516.92 L236.857,519.02 L241.429,541.52 L246,554.72 L250.571,545.72 L255.143,534.62 L259.714,548.72 L264.286,559.82 L268.857,560.42 L273.429,445.82 L278,419.72 L282.571,523.82 L287.143,543.32 L291.714,509.12 L296.286,528.62 L300.857,543.32 L305.429,593.42 L310,582.32 L314.571,592.22 L319.143,601.22 L323.714,539.72 L328.286,502.52 L332.857,589.82 L337.429,553.82 L342,572.72 L346.571,566.12 L351.143,564.32 L355.714,544.22 L360.286,517.22 L364.857,512.12 L369.429,575.72 L374,523.52 L378.571,490.82 L383.143,513.32 L387.714,561.62 L392.286,591.32 L396.857,608.12 L401.429,553.22 L406,528.32 L410.571,580.22 L415.143,586.52 L419.714,605.42 L424.286,593.42 L428.857,596.42 L433.429,575.42 L438,566.42 L442.571,511.22 L447.143,494.72 L451.714,566.12 L456.286,611.12 L460.857,560.72 L465.429,541.82 L470,525.32 L474.571,510.02 L479.143,536.12 L483.714,525.92 L488.286,529.22 L492.857,516.62 L497.429,476.12 L502,511.22 L506.571,508.22 L511.143,563.42 L515.714,495.02 L520.286,476.12 L524.857,488.42 L529.429,546.62 L534,501.62 L538.571,519.62 L543.143,499.22 L547.714,451.82 L552.286,450.32 L556.857,456.62 L561.429,431.72 L566,444.92 L570.571,442.22 L575.143,426.02 L579.714,394.52 L584.286,432.62 L588.857,476.72 L593.429,455.42 L598,483.62 L602.571,486.62 L607.143,506.12 L611.714,452.72 L616.286,430.82 L620.857,409.22 L625.429,467.72 L630,483.32 L634.571,508.82 L639.143,439.82 L643.714,438.32 L648.286,444.02 L652.857,461.12 L657.429,438.02 L662,455.42 L666.571,442.22 L671.143,522.32 L675.714,486.32 L680.286,467.72 L684.857,458.72 L689.429,481.22 L694,436.82 L698.571,451.22 L703.143,486.62 L707.714,453.32 L712.286,411.92 L716.857,473.72 L721.429,453.32 L726,481.82 L730.571,383.12 L735.143,420.92 L739.714,398.12 L744.286,361.22 L748.857,346.82 L753.429,411.32 L758,356.72 L762.571,407.12 L767.143,408.02 L771.714,392.42 L776.286,350.72 L780.857,337.22 L785.429,371.12 L790,313.82 L794.571,318.92 L799.143,381.02 L803.714,363.92 L808.286,349.22 L812.857,302.12 L817.429,335.42 L822,293.12 L826.571,248.12 L831.143,320.72 L835.714,320.72 L840.286,280.82 L844.857,252.62 L849.429,258.02 L854,283.82 L858.571,234.02 L863.143,248.72 L867.714,244.82 L872.286,283.22 L876.857,242.72 L881.429,221.42 L886,254.42 L890.571,248.42 L895.143,243.02 L899.714,221.12 L904.286,178.82 L908.857,137.42 L913.429,165.62 L918,187.52 L922.571,145.82 L927.143,137.72 L931.714,184.82 " stroke="red" stroke-width="2" fill="none" stroke-linecap="round" stroke-linejoin="round"/><!-- Colored boxes for TRACE LEGENDS --><path d="M190,105 h45 v10 h-45 z" fill="orange"/><path d="M190,142.5 h45 v10 h-45 z" fill="green"/><path d="M190,180 h45 v10 h-45 z" fill="purple"/><path d="M190,217.5 h45 v10 h-45 z" fill="blue"/><path d="M190,255 h45 v10 h-45 z" fill="red"/>   <g font-family="Liberation Sans,sans-serif" text-anchor="start" font-size="30px"><text x="250" y="120" fill="orange">NASA GISS</text><text x="250" y="157.5" fill="green">HadCRUT</text><text x="250" y="195" fill="purple">NOAA</text> <switch fill="blue">
<text x="250" y="232.5" systemLanguage="cs">Japan Meteo.</text>
<text x="250" y="232.5" systemLanguage="ja">日本気象庁</text>
<text x="250" y="232.5">Japan Met.</text>
 </switch>
<text x="250" y="270" fill="red">Berkeley Earth</text>   </g></svg>